<mxfile host="65bd71144e" scale="1" border="10">
    <diagram id="h17Kq1fYVlkzOT2byBLN" name="Page-1">
        <mxGraphModel dx="169" dy="93" grid="1" gridSize="10" guides="1" tooltips="1" connect="1" arrows="1" fold="1" page="1" pageScale="1" pageWidth="1169" pageHeight="827" background="#ffffff" math="0" shadow="0">
            <root>
                <mxCell id="0"/>
                <mxCell id="1" parent="0"/>
                <mxCell id="kd8pXG1fjtVr0i-MkSHm-70" value="" style="endArrow=none;html=1;rounded=0;startArrow=none;" parent="1" source="kd8pXG1fjtVr0i-MkSHm-68" edge="1">
                    <mxGeometry width="50" height="50" relative="1" as="geometry">
                        <mxPoint x="40" y="400" as="sourcePoint"/>
                        <mxPoint x="840" y="400" as="targetPoint"/>
                    </mxGeometry>
                </mxCell>
                <mxCell id="kd8pXG1fjtVr0i-MkSHm-72" value="" style="shape=flexArrow;endArrow=classic;html=1;rounded=0;" parent="1" edge="1">
                    <mxGeometry width="50" height="50" relative="1" as="geometry">
                        <mxPoint x="40" y="400" as="sourcePoint"/>
                        <mxPoint x="40" y="280" as="targetPoint"/>
                    </mxGeometry>
                </mxCell>
                <mxCell id="kd8pXG1fjtVr0i-MkSHm-15" value="" style="endArrow=none;html=1;rounded=0;" parent="1" edge="1">
                    <mxGeometry width="50" height="50" relative="1" as="geometry">
                        <mxPoint x="40" y="280" as="sourcePoint"/>
                        <mxPoint x="120" y="280" as="targetPoint"/>
                    </mxGeometry>
                </mxCell>
                <mxCell id="kd8pXG1fjtVr0i-MkSHm-20" value="" style="endArrow=none;html=1;rounded=0;strokeColor=#999999;" parent="1" edge="1">
                    <mxGeometry width="50" height="50" relative="1" as="geometry">
                        <mxPoint x="600" y="383" as="sourcePoint"/>
                        <mxPoint x="680" y="383" as="targetPoint"/>
                    </mxGeometry>
                </mxCell>
                <mxCell id="kd8pXG1fjtVr0i-MkSHm-37" value="&lt;div&gt;L&lt;sub&gt;1&lt;/sub&gt;,&amp;nbsp;&lt;span&gt;f&lt;/span&gt;&lt;sub&gt;1&lt;/sub&gt;&lt;span&gt;=200&lt;/span&gt;&lt;/div&gt;&lt;div&gt;&lt;span&gt;(convex)&lt;/span&gt;&lt;/div&gt;" style="text;html=1;strokeColor=none;fillColor=none;align=center;verticalAlign=middle;whiteSpace=wrap;rounded=0;" parent="1" vertex="1">
                    <mxGeometry x="125" y="240" width="70" height="160" as="geometry"/>
                </mxCell>
                <mxCell id="kd8pXG1fjtVr0i-MkSHm-40" value="&lt;div&gt;L&lt;sub&gt;2&lt;/sub&gt;,&amp;nbsp;&lt;span&gt;f&lt;/span&gt;&lt;sub&gt;2&lt;/sub&gt;&lt;span&gt;=-30,&lt;/span&gt;&lt;/div&gt;&lt;div align=&quot;left&quot;&gt;&lt;span style=&quot;text-align: center&quot;&gt;(concave)&lt;/span&gt;&lt;/div&gt;" style="text;html=1;strokeColor=none;fillColor=none;align=center;verticalAlign=middle;whiteSpace=wrap;rounded=0;" parent="1" vertex="1">
                    <mxGeometry x="605.5" y="240" width="69" height="160" as="geometry"/>
                </mxCell>
                <mxCell id="kd8pXG1fjtVr0i-MkSHm-41" value="200&amp;nbsp;mm" style="text;html=1;strokeColor=none;fillColor=none;align=center;verticalAlign=middle;whiteSpace=wrap;rounded=0;" parent="1" vertex="1">
                    <mxGeometry x="360" y="180" width="80" height="30" as="geometry"/>
                </mxCell>
                <mxCell id="kd8pXG1fjtVr0i-MkSHm-43" value="30 mm" style="text;html=1;strokeColor=none;fillColor=none;align=center;verticalAlign=middle;whiteSpace=wrap;rounded=0;" parent="1" vertex="1">
                    <mxGeometry x="510" y="220" width="70" height="30" as="geometry"/>
                </mxCell>
                <mxCell id="kd8pXG1fjtVr0i-MkSHm-45" value="" style="endArrow=none;html=1;rounded=0;strokeColor=#999999;" parent="1" target="kd8pXG1fjtVr0i-MkSHm-5" edge="1">
                    <mxGeometry width="50" height="50" relative="1" as="geometry">
                        <mxPoint x="120" y="180" as="sourcePoint"/>
                        <mxPoint x="490" y="370" as="targetPoint"/>
                    </mxGeometry>
                </mxCell>
                <mxCell id="kd8pXG1fjtVr0i-MkSHm-46" value="" style="endArrow=none;html=1;rounded=0;strokeColor=#999999;" parent="1" edge="1">
                    <mxGeometry width="50" height="50" relative="1" as="geometry">
                        <mxPoint x="489.8" y="220" as="sourcePoint"/>
                        <mxPoint x="489.8" y="400" as="targetPoint"/>
                    </mxGeometry>
                </mxCell>
                <mxCell id="kd8pXG1fjtVr0i-MkSHm-47" value="" style="endArrow=none;html=1;rounded=0;strokeColor=#999999;" parent="1" target="kd8pXG1fjtVr0i-MkSHm-71" edge="1">
                    <mxGeometry width="50" height="50" relative="1" as="geometry">
                        <mxPoint x="680" y="180" as="sourcePoint"/>
                        <mxPoint x="679.41" y="360" as="targetPoint"/>
                    </mxGeometry>
                </mxCell>
                <mxCell id="kd8pXG1fjtVr0i-MkSHm-48" value="" style="endArrow=none;html=1;rounded=0;strokeColor=#999999;" parent="1" edge="1">
                    <mxGeometry width="50" height="50" relative="1" as="geometry">
                        <mxPoint x="680" y="400" as="sourcePoint"/>
                        <mxPoint x="680" y="580" as="targetPoint"/>
                    </mxGeometry>
                </mxCell>
                <mxCell id="kd8pXG1fjtVr0i-MkSHm-49" value="" style="endArrow=none;html=1;rounded=0;strokeColor=#999999;" parent="1" edge="1">
                    <mxGeometry width="50" height="50" relative="1" as="geometry">
                        <mxPoint x="840" y="400" as="sourcePoint"/>
                        <mxPoint x="840" y="600" as="targetPoint"/>
                    </mxGeometry>
                </mxCell>
                <mxCell id="kd8pXG1fjtVr0i-MkSHm-50" value="" style="endArrow=none;html=1;rounded=0;strokeColor=#999999;" parent="1" edge="1">
                    <mxGeometry width="50" height="50" relative="1" as="geometry">
                        <mxPoint x="120" y="560" as="sourcePoint"/>
                        <mxPoint x="120" y="580" as="targetPoint"/>
                    </mxGeometry>
                </mxCell>
                <mxCell id="kd8pXG1fjtVr0i-MkSHm-51" value="" style="endArrow=none;html=1;rounded=0;strokeColor=#999999;exitX=0;exitY=0.5;exitDx=0;exitDy=0;" parent="1" edge="1">
                    <mxGeometry width="50" height="50" relative="1" as="geometry">
                        <mxPoint x="600" y="560" as="sourcePoint"/>
                        <mxPoint x="600" y="600" as="targetPoint"/>
                    </mxGeometry>
                </mxCell>
                <mxCell id="kd8pXG1fjtVr0i-MkSHm-53" value="" style="endArrow=none;html=1;rounded=0;" parent="1" edge="1">
                    <mxGeometry width="50" height="50" relative="1" as="geometry">
                        <mxPoint x="41" y="280" as="sourcePoint"/>
                        <mxPoint x="121" y="280" as="targetPoint"/>
                    </mxGeometry>
                </mxCell>
                <mxCell id="kd8pXG1fjtVr0i-MkSHm-17" value="" style="endArrow=none;html=1;rounded=0;" parent="1" edge="1">
                    <mxGeometry width="50" height="50" relative="1" as="geometry">
                        <mxPoint x="120" y="280" as="sourcePoint"/>
                        <mxPoint x="680" y="400" as="targetPoint"/>
                    </mxGeometry>
                </mxCell>
                <mxCell id="kd8pXG1fjtVr0i-MkSHm-24" value="" style="endArrow=none;html=1;rounded=0;" parent="1" edge="1">
                    <mxGeometry width="50" height="50" relative="1" as="geometry">
                        <mxPoint x="480" y="400" as="sourcePoint"/>
                        <mxPoint x="840" y="349" as="targetPoint"/>
                    </mxGeometry>
                </mxCell>
                <mxCell id="kd8pXG1fjtVr0i-MkSHm-27" value="" style="endArrow=none;html=1;rounded=0;" parent="1" edge="1">
                    <mxGeometry width="50" height="50" relative="1" as="geometry">
                        <mxPoint x="600" y="400" as="sourcePoint"/>
                        <mxPoint x="840" y="349" as="targetPoint"/>
                    </mxGeometry>
                </mxCell>
                <mxCell id="kd8pXG1fjtVr0i-MkSHm-54" value="" style="endArrow=none;html=1;rounded=0;" parent="1" edge="1">
                    <mxGeometry width="50" height="50" relative="1" as="geometry">
                        <mxPoint x="40" y="280" as="sourcePoint"/>
                        <mxPoint x="120" y="280" as="targetPoint"/>
                    </mxGeometry>
                </mxCell>
                <mxCell id="kd8pXG1fjtVr0i-MkSHm-5" value="" style="triangle;whiteSpace=wrap;html=1;direction=north;fillColor=#000000;strokeColor=none;" parent="1" vertex="1">
                    <mxGeometry x="101.25" y="240" width="37.5" height="30" as="geometry"/>
                </mxCell>
                <mxCell id="kd8pXG1fjtVr0i-MkSHm-6" value="" style="triangle;whiteSpace=wrap;html=1;direction=south;fillColor=#000000;strokeColor=none;" parent="1" vertex="1">
                    <mxGeometry x="101.25" y="530" width="37.5" height="30" as="geometry"/>
                </mxCell>
                <mxCell id="kd8pXG1fjtVr0i-MkSHm-8" value="" style="triangle;whiteSpace=wrap;html=1;direction=south;strokeColor=none;fillColor=#000000;" parent="1" vertex="1">
                    <mxGeometry x="581.25" y="240" width="37.5" height="30" as="geometry"/>
                </mxCell>
                <mxCell id="kd8pXG1fjtVr0i-MkSHm-58" value="" style="triangle;whiteSpace=wrap;html=1;direction=north;strokeColor=none;fillColor=#000000;" parent="1" vertex="1">
                    <mxGeometry x="581.25" y="530" width="37.5" height="30" as="geometry"/>
                </mxCell>
                <mxCell id="kd8pXG1fjtVr0i-MkSHm-59" value="" style="rounded=0;whiteSpace=wrap;html=1;strokeColor=none;fillColor=#000000;" parent="1" vertex="1">
                    <mxGeometry x="595" y="260" width="10" height="280" as="geometry"/>
                </mxCell>
                <mxCell id="kd8pXG1fjtVr0i-MkSHm-19" value="" style="endArrow=classic;startArrow=classic;html=1;rounded=0;" parent="1" edge="1">
                    <mxGeometry width="50" height="50" relative="1" as="geometry">
                        <mxPoint x="120" y="180" as="sourcePoint"/>
                        <mxPoint x="680" y="180" as="targetPoint"/>
                    </mxGeometry>
                </mxCell>
                <mxCell id="kd8pXG1fjtVr0i-MkSHm-33" value="" style="endArrow=classic;startArrow=classic;html=1;rounded=0;" parent="1" edge="1">
                    <mxGeometry width="50" height="50" relative="1" as="geometry">
                        <mxPoint x="490" y="220" as="sourcePoint"/>
                        <mxPoint x="600" y="220" as="targetPoint"/>
                    </mxGeometry>
                </mxCell>
                <mxCell id="kd8pXG1fjtVr0i-MkSHm-34" value="" style="endArrow=classic;startArrow=classic;html=1;rounded=0;" parent="1" edge="1">
                    <mxGeometry width="50" height="50" relative="1" as="geometry">
                        <mxPoint x="120" y="580" as="sourcePoint"/>
                        <mxPoint x="600" y="580" as="targetPoint"/>
                    </mxGeometry>
                </mxCell>
                <mxCell id="kd8pXG1fjtVr0i-MkSHm-35" value="" style="endArrow=classic;startArrow=classic;html=1;rounded=0;" parent="1" edge="1">
                    <mxGeometry width="50" height="50" relative="1" as="geometry">
                        <mxPoint x="600" y="580" as="sourcePoint"/>
                        <mxPoint x="680" y="580" as="targetPoint"/>
                    </mxGeometry>
                </mxCell>
                <mxCell id="kd8pXG1fjtVr0i-MkSHm-36" value="" style="endArrow=classic;startArrow=classic;html=1;rounded=0;" parent="1" edge="1">
                    <mxGeometry width="50" height="50" relative="1" as="geometry">
                        <mxPoint x="600" y="600" as="sourcePoint"/>
                        <mxPoint x="840" y="600" as="targetPoint"/>
                    </mxGeometry>
                </mxCell>
                <mxCell id="kd8pXG1fjtVr0i-MkSHm-63" value="a" style="text;html=1;strokeColor=none;fillColor=none;align=center;verticalAlign=middle;whiteSpace=wrap;rounded=0;" parent="1" vertex="1">
                    <mxGeometry x="610" y="550" width="60" height="30" as="geometry"/>
                </mxCell>
                <mxCell id="kd8pXG1fjtVr0i-MkSHm-64" value="b" style="text;html=1;strokeColor=none;fillColor=none;align=center;verticalAlign=middle;whiteSpace=wrap;rounded=0;" parent="1" vertex="1">
                    <mxGeometry x="730" y="570" width="60" height="30" as="geometry"/>
                </mxCell>
                <mxCell id="kd8pXG1fjtVr0i-MkSHm-65" value="c" style="text;html=1;strokeColor=none;fillColor=none;align=center;verticalAlign=middle;whiteSpace=wrap;rounded=0;" parent="1" vertex="1">
                    <mxGeometry x="330" y="550" width="60" height="30" as="geometry"/>
                </mxCell>
                <mxCell id="kd8pXG1fjtVr0i-MkSHm-67" value="&lt;div&gt;Image&lt;/div&gt;" style="text;html=1;strokeColor=none;fillColor=none;align=center;verticalAlign=middle;whiteSpace=wrap;rounded=0;" parent="1" vertex="1">
                    <mxGeometry x="780" y="370" width="60" height="30" as="geometry"/>
                </mxCell>
                <mxCell id="kd8pXG1fjtVr0i-MkSHm-73" value="" style="shape=flexArrow;endArrow=classic;html=1;rounded=0;fillColor=none;width=10;" parent="1" edge="1">
                    <mxGeometry width="50" height="50" relative="1" as="geometry">
                        <mxPoint x="840" y="400" as="sourcePoint"/>
                        <mxPoint x="840" y="349" as="targetPoint"/>
                    </mxGeometry>
                </mxCell>
                <mxCell id="kd8pXG1fjtVr0i-MkSHm-71" value="" style="ellipse;whiteSpace=wrap;html=1;aspect=fixed;fillColor=#000000;strokeColor=none;" parent="1" vertex="1">
                    <mxGeometry x="675" y="395" width="10" height="10" as="geometry"/>
                </mxCell>
                <mxCell id="kd8pXG1fjtVr0i-MkSHm-4" value="" style="rounded=0;whiteSpace=wrap;html=1;fillColor=#000000;strokeColor=none;" parent="1" vertex="1">
                    <mxGeometry x="115" y="270" width="10" height="260" as="geometry"/>
                </mxCell>
                <mxCell id="2" value="&lt;div&gt;Object&lt;/div&gt;" style="text;html=1;strokeColor=none;fillColor=none;align=center;verticalAlign=middle;whiteSpace=wrap;rounded=0;" parent="1" vertex="1">
                    <mxGeometry x="40" y="280" width="60" height="120" as="geometry"/>
                </mxCell>
                <mxCell id="3" value="" style="endArrow=classic;startArrow=classic;html=1;rounded=0;" parent="1" edge="1">
                    <mxGeometry width="50" height="50" relative="1" as="geometry">
                        <mxPoint x="40" y="140" as="sourcePoint"/>
                        <mxPoint x="840" y="140" as="targetPoint"/>
                    </mxGeometry>
                </mxCell>
                <mxCell id="4" value="Propagation distance" style="text;html=1;strokeColor=none;fillColor=none;align=center;verticalAlign=middle;whiteSpace=wrap;rounded=0;" parent="1" vertex="1">
                    <mxGeometry x="360" y="140" width="160" height="30" as="geometry"/>
                </mxCell>
                <mxCell id="6" value="" style="endArrow=none;html=1;rounded=0;strokeColor=#999999;entryX=0;entryY=0.5;entryDx=0;entryDy=0;" parent="1" target="kd8pXG1fjtVr0i-MkSHm-8" edge="1">
                    <mxGeometry width="50" height="50" relative="1" as="geometry">
                        <mxPoint x="600" y="220" as="sourcePoint"/>
                        <mxPoint x="650" y="230" as="targetPoint"/>
                    </mxGeometry>
                </mxCell>
                <mxCell id="10" value="" style="endArrow=none;html=1;rounded=0;strokeColor=#999999;" parent="1" edge="1">
                    <mxGeometry width="50" height="50" relative="1" as="geometry">
                        <mxPoint x="840" y="140" as="sourcePoint"/>
                        <mxPoint x="840" y="349" as="targetPoint"/>
                    </mxGeometry>
                </mxCell>
                <mxCell id="kd8pXG1fjtVr0i-MkSHm-68" value="" style="ellipse;whiteSpace=wrap;html=1;aspect=fixed;fillColor=#000000;strokeColor=none;" parent="1" vertex="1">
                    <mxGeometry x="485" y="395" width="10" height="10" as="geometry"/>
                </mxCell>
                <mxCell id="8" value="" style="endArrow=none;html=1;rounded=0;" parent="1" target="kd8pXG1fjtVr0i-MkSHm-68" edge="1">
                    <mxGeometry width="50" height="50" relative="1" as="geometry">
                        <mxPoint x="40" y="400" as="sourcePoint"/>
                        <mxPoint x="840" y="400" as="targetPoint"/>
                    </mxGeometry>
                </mxCell>
                <mxCell id="11" value="" style="endArrow=none;html=1;rounded=0;strokeColor=#999999;" parent="1" edge="1">
                    <mxGeometry width="50" height="50" relative="1" as="geometry">
                        <mxPoint x="40" y="140" as="sourcePoint"/>
                        <mxPoint x="40" y="280" as="targetPoint"/>
                    </mxGeometry>
                </mxCell>
                <mxCell id="12" value="" style="endArrow=none;html=1;rounded=0;strokeColor=#999999;exitX=0;exitY=0;exitDx=0;exitDy=0;" edge="1" parent="1" source="13">
                    <mxGeometry width="50" height="50" relative="1" as="geometry">
                        <mxPoint x="570" y="205" as="sourcePoint"/>
                        <mxPoint x="570" y="400" as="targetPoint"/>
                    </mxGeometry>
                </mxCell>
                <mxCell id="13" value="30 mm" style="text;html=1;strokeColor=none;fillColor=none;align=center;verticalAlign=middle;whiteSpace=wrap;rounded=0;" vertex="1" parent="1">
                    <mxGeometry x="570" y="200" width="110" height="30" as="geometry"/>
                </mxCell>
                <mxCell id="14" value="" style="endArrow=classic;startArrow=classic;html=1;rounded=0;" edge="1" parent="1">
                    <mxGeometry width="50" height="50" relative="1" as="geometry">
                        <mxPoint x="570" y="199.6" as="sourcePoint"/>
                        <mxPoint x="680" y="199.6" as="targetPoint"/>
                    </mxGeometry>
                </mxCell>
            </root>
        </mxGraphModel>
    </diagram>
</mxfile>